<svg width="128" height="125" viewBox="0 0 128 125" fill="none" xmlns="http://www.w3.org/2000/svg">
<path opacity="0.1" fill-rule="evenodd" clip-rule="evenodd" d="M120.782 28.9008C129.279 44.0296 130.66 62.8954 122.854 76.9694C115.078 91.0435 98.085 100.265 81.5723 99.9942C65.0595 99.7229 49.0272 89.9284 37.6184 73.7749C26.2396 57.6214 19.4844 35.1391 27.5006 20.2815C35.5167 5.45409 58.3043 -1.74868 77.4891 0.360918C96.7039 2.44038 112.286 13.7719 120.782 28.9008Z" fill="#00B8D9"/>
<path fill-rule="evenodd" clip-rule="evenodd" d="M74.1087 114C79.6315 114 84.1087 109.523 84.1087 104V58.8225L50.0543 52.0007L16 58.8225V104C16 109.523 20.4772 114 26 114H74.1087Z" fill="white"/>
<path fill-rule="evenodd" clip-rule="evenodd" d="M52 113H68V99C68 97.8954 67.1046 97 66 97H52V113ZM48 113V97H34C32.8954 97 32 97.8954 32 99V113H48ZM34 93H66C69.3137 93 72 95.6863 72 99V117H28V99C28 95.6863 30.6863 93 34 93Z" fill="#2E2E2E"/>
<path fill-rule="evenodd" clip-rule="evenodd" d="M10.3922 60.9223L12.1067 60.5794L12 103C12 110.732 18.268 117 26 117H74C81.732 117 88 110.732 88 103L88.1066 60.6221L89.6078 60.9223C90.8454 61.1698 92 60.2233 92 58.9612V46.9612C92 46.0078 91.3271 45.187 90.3922 45L50.3922 37H49.6078L9.60777 45C8.67292 45.187 8 46.0078 8 46.9612V58.9612C8 60.2233 9.15465 61.1698 10.3922 60.9223ZM12 56.5216L49.6078 49H50.3922L88 56.5216V48.6008L50 41.0008L12 48.6008V56.5216ZM16.1088 59.779L16 103C16 108.523 20.4772 113 26 113H74C79.5229 113 84 108.523 84 103L84.1087 59.8225L50 53.0008L16.1088 59.779Z" fill="#2E2E2E"/>
</svg>
