<svg width="159" height="109" viewBox="0 0 159 109" fill="none" xmlns="http://www.w3.org/2000/svg">
<path opacity="0.1" fill-rule="evenodd" clip-rule="evenodd" d="M120.887 20.1114C131.047 35.3848 127.905 60.7226 116.16 77.7616C104.443 94.8301 84.0939 103.541 62.9809 103.982C41.868 104.424 19.9915 96.5958 8.77436 79.8511C-2.47219 63.0769 -3.05947 37.4448 7.89343 21.73C18.817 6.04466 41.2807 0.306124 64.2436 0.0118402C87.2359 -0.282444 110.698 4.86752 120.887 20.1114Z" fill="#36B37E"/>
<path fill-rule="evenodd" clip-rule="evenodd" d="M137.67 31.9779C129.289 22.4347 114.638 21.8191 105.486 30.6257L79.1559 55.9613C70.4859 64.304 70.1567 78.0744 78.4183 86.8219C86.6779 95.5674 100.441 96.027 109.266 87.852L136.071 63.0204C144.928 54.8158 145.637 41.0493 137.67 31.9779Z" fill="white"/>
<path fill-rule="evenodd" clip-rule="evenodd" d="M90.5586 43.4961L122.775 75.7122L125.703 72.7834L93.4873 40.5674L90.5586 43.4961Z" fill="#2E2E2E"/>
<path fill-rule="evenodd" clip-rule="evenodd" d="M138.792 62.433C148.497 52.7281 148.497 36.9932 138.792 27.2882C129.087 17.5833 113.352 17.5833 103.647 27.2882L77.2885 53.6468C67.5835 63.3518 67.5835 79.0866 77.2885 88.7916C86.9934 98.4966 102.728 98.4966 112.433 88.7916L138.792 62.433ZM80.2172 56.5756L106.576 30.217C114.663 22.1295 127.776 22.1295 135.863 30.217C143.951 38.3044 143.951 51.4168 135.863 59.5043L109.505 85.8629C101.417 93.9503 88.3047 93.9503 80.2172 85.8629C72.1298 77.7754 72.1298 64.663 80.2172 56.5756Z" fill="#2E2E2E"/>
</svg>
