<svg width="142" height="110" viewBox="0 0 142 110" fill="none" xmlns="http://www.w3.org/2000/svg">
<path opacity="0.1" fill-rule="evenodd" clip-rule="evenodd" d="M98.8764 30.7106C106.523 47.659 102.867 67.4665 93.3926 82.715C83.9182 97.9891 68.6253 108.704 51.2727 109.889C33.9201 111.074 14.5078 102.703 5.70281 87.8407C-3.10222 72.9529 -1.32577 51.5742 8.38036 33.4409C18.0865 15.3077 35.6965 0.394096 53.976 0.00773447C72.2554 -0.378627 91.2042 13.7622 98.8764 30.7106Z" fill="#1565D8"/>
<path fill-rule="evenodd" clip-rule="evenodd" d="M57 55L68.577 45.1616L87.6421 55L84 62.4873L96.2755 64L122.139 56.1621L127.273 58.5708V65.9785L97.8557 86.3779L73.891 78.2319H57V55Z" fill="white"/>
<path d="M58 76H73.4263L74.0995 76.1167L95.0544 83.6069C96.7617 84.2172 98.6534 84.0227 100.201 83.0777C115.387 73.8046 122.526 66.8944 123.842 65.7979C124.179 65.5174 124.75 64.7857 125.469 63.6539C125.998 62.8214 126.142 61.8013 125.865 60.8548C125.333 59.039 123.43 57.9979 121.644 58.5206L96.6043 66.2725C96.2857 66.3712 95.9474 66.3886 95.6204 66.3231L76.0713 62.4107L75.7792 62.3782C74.6813 62.2562 73.8903 61.2674 74.0122 60.1696C74.0177 60.1207 74.0248 60.0724 74.0336 60.0248C74.2614 58.8823 75.3151 58.18 76.3982 58.3968L76.6858 58.4543L81.9441 59.0386C83.0451 59.1609 84.0964 58.5483 84.5327 57.5301C85.0797 56.2538 84.4885 54.7757 83.1056 54.1793L72.0142 48.6336C69.7958 47.5244 67.1236 47.8945 65.2901 49.5649L58 56V50.6652L62.5963 46.608C65.652 43.8241 70.1057 43.2072 73.8031 45.0559L84.7879 50.5522C88.0947 51.9694 89.6265 55.799 88.2093 59.1058C87.9782 59.645 87.6806 60.1403 87.3289 60.5844L95.9069 62.3011L120.49 54.6907C124.426 53.5383 128.551 55.7949 129.704 59.7309C130.304 61.7826 129.992 63.9937 128.845 65.7985C127.921 67.2537 127.135 68.2608 126.403 68.8712C124.848 70.1664 117.863 76.9792 102.285 86.4916C99.7065 88.0665 96.5536 88.3906 93.7081 87.3735L73.0796 80H58V76Z" fill="#2E2E2E"/>
<path fill-rule="evenodd" clip-rule="evenodd" d="M104 52C94.936 52 90 48.0055 90 38C90 30.7999 94.1989 22.402 102.479 12.7016C103.277 11.7661 104.723 11.7661 105.521 12.7016C113.801 22.402 118 30.7999 118 38C118 48.0055 113.064 52 104 52ZM94 38C94 45.5878 96.9808 48 104 48C111.019 48 114 45.5878 114 38C114 32.3572 110.698 25.3703 104 17.1243C97.3015 25.3703 94 32.3572 94 38ZM52 44H54V84H52C50.8954 84 50 84.8954 50 86C50 87.1046 50.8954 88 52 88H56C57.1046 88 58 87.1046 58 86V42C58 40.8954 57.1046 40 56 40H52C50.8954 40 50 40.8954 50 42C50 43.1046 50.8954 44 52 44Z" fill="#2E2E2E"/>
</svg>
