<svg width="135" height="103" viewBox="0 0 135 103" fill="none" xmlns="http://www.w3.org/2000/svg">
<path opacity="0.1" fill-rule="evenodd" clip-rule="evenodd" d="M131.268 16.8517C139.254 30.1046 133.506 51.8282 122.696 69.6853C111.861 87.5678 95.914 101.584 79.3054 101.991C62.6713 102.398 45.3251 89.1704 36.9572 72.7123C28.5893 56.2797 29.1743 36.5912 37.8474 22.9567C46.5205 9.29676 63.2563 1.66553 82.4592 0.241029C101.662 -1.18347 123.307 3.62421 131.268 16.8517Z" fill="#FAAD13"/>
<path fill-rule="evenodd" clip-rule="evenodd" d="M40.0098 94.0736C32.2778 94.0736 26.0098 87.8056 26.0098 80.0736V48.0256C26.0098 40.2937 32.2778 34.0256 40.0098 34.0256H59.4368C67.1688 34.0256 73.4368 40.2936 73.4368 48.0256V80.0736C73.4368 87.8056 67.1688 94.0736 59.4368 94.0736H40.0098Z" fill="white"/>
<path fill-rule="evenodd" clip-rule="evenodd" d="M52.0411 62.0479H62.0491C63.1546 62.0479 64.0507 62.9441 64.0507 64.0495C64.0507 65.155 63.1546 66.0511 62.0491 66.0511H52.0411V76.0591C52.0411 77.1646 51.145 78.0607 50.0395 78.0607C48.9341 78.0607 48.0379 77.1646 48.0379 76.0591V66.0511H38.0299C36.9245 66.0511 36.0283 65.155 36.0283 64.0495C36.0283 62.9441 36.9245 62.0479 38.0299 62.0479H48.0379V52.0399C48.0379 50.9345 48.9341 50.0383 50.0395 50.0383C51.145 50.0383 52.0411 50.9345 52.0411 52.0399V62.0479Z" fill="#2E2E2E"/>
<path fill-rule="evenodd" clip-rule="evenodd" d="M76.0611 84.0655V52.0399C76.0611 42.0812 69.4005 33.4923 60.0483 30.8512V16.0111C60.0483 12.6948 57.3599 10.0063 54.0435 10.0063H46.0371C42.7208 10.0063 40.0323 12.6948 40.0323 16.0111V30.8512C30.6801 33.4923 24.0195 42.0812 24.0195 52.0399V84.0655C24.0195 89.5928 28.5003 94.0735 34.0275 94.0735H66.0531C71.5804 94.0735 76.0611 89.5928 76.0611 84.0655ZM44.0355 30.0223H56.0451V16.0111C56.0451 14.9057 55.149 14.0095 54.0435 14.0095H46.0371C44.9317 14.0095 44.0355 14.9057 44.0355 16.0111V30.0223ZM43.2353 34.0255C43.0035 34.1996 42.7313 34.3252 42.4321 34.3859C34.1041 36.0764 28.0227 43.434 28.0227 52.0399V84.0656C28.0227 87.3819 30.7112 90.0703 34.0275 90.0703H66.0531C69.3695 90.0703 72.0579 87.3819 72.0579 84.0656V52.0399C72.0579 43.434 65.9766 36.0764 57.6485 34.3859C57.3494 34.3252 57.0772 34.1996 56.8454 34.0255H43.2353Z" fill="#2E2E2E"/>
</svg>
